# xmcd
#
# Track frame offsets:
#      151
#      9965
#      20813
#      31116
#      48024
#      60638
#      70856
#      79637
#      94036
#      106206
#      115269
#      126629
# 
# Disc length: 1892 seconds
#
# Revision: 6
# Processed by: cddbd v1.4PL0 Copyright (c) Steve Scherf et al.
#
# Submitted via: FreeRIP 1.21
#
DISCID=9107620c
DTITLE=Born Again - Goin' Home
DYEAR=2002
DGENRE=Bluegrass
TTITLE0=Goin' Home
TTITLE1=Born Again
TTITLE2=When I Wake Up
TTITLE3=I've Just Seen The Rock Of Ages
TTITLE4=Teach Me Of Jesus
TTITLE5=Little White Church
TTITLE6=Crying Holy
TTITLE7=When God Comes And Gathers His Jewels
TTITLE8=I'm On My Way To Heaven
TTITLE9=Sing, Sing, Sing
TTITLE10=I'm Using My Bible For A Road Map
TTITLE11=Gloryland
EXTD=YEAR: 1994 ID3G: 2
EXTT0=
EXTT1=
EXTT2=
EXTT3=
EXTT4=
EXTT5=
EXTT6=
EXTT7=
EXTT8=
EXTT9=
EXTT10=
EXTT11=
PLAYORDER=
